<svg width="534" height="85" viewBox="0 0 534 85" fill="none" xmlns="http://www.w3.org/2000/svg">
  <g clip-path="url(#clip0_89_3)">
    <path fill-rule="evenodd" clip-rule="evenodd"
      d="M4 84.7615C1.79086 84.7615 0 82.9706 0 80.7615V14.937C0 12.7278 1.79086 10.937 4 10.937H9.88697C12.0961 10.937 13.887 12.7278 13.887 14.937V24.4817C13.887 26.6908 15.6778 28.4817 17.887 28.4817H26.4892C29.9938 28.4817 31.804 32.6687 29.4032 35.2218L25.9987 38.8423C25.2428 39.6463 24.1882 40.1022 23.0847 40.1022H17.887C15.6778 40.1022 13.887 41.8931 13.887 44.1022V80.7615C13.887 82.9706 12.0961 84.7615 9.88698 84.7615H4Z"
      fill="#E0E0E0" />
    <path fill-rule="evenodd" clip-rule="evenodd"
      d="M139.518 28.4817C143.023 28.4817 144.833 32.6687 142.432 35.2218L139.028 38.8424C138.272 39.6463 137.217 40.1022 136.114 40.1022H117.029C114.82 40.1022 113.029 38.3114 113.029 36.1022V32.4817C113.029 30.2725 114.82 28.4817 117.029 28.4817H139.518ZM125.609 51.5723C126.996 51.5723 128.284 52.2913 129.013 53.4722L144.552 78.6614C146.196 81.3263 144.279 84.7615 141.148 84.7615H134.612C133.225 84.7615 131.936 84.0425 131.208 82.8616L115.668 57.6725C114.024 55.0075 115.941 51.5723 119.073 51.5723H125.609ZM105.501 0C107.71 0 109.501 1.79086 109.501 4V80.7615C109.501 82.9706 107.71 84.7615 105.501 84.7615H99.3948C97.1857 84.7615 95.3948 82.9706 95.3948 80.7615V4C95.3948 1.79086 97.1857 0 99.3948 0H105.501Z"
      fill="#E0E0E0" />
    <path fill-rule="evenodd" clip-rule="evenodd"
      d="M412.583 48.5328C416.088 48.5328 417.898 52.7198 415.497 55.2729L412.093 58.8935C411.337 59.6974 410.282 60.1533 409.179 60.1533H390.094C387.885 60.1533 386.094 58.3625 386.094 56.1533V52.5328C386.094 50.3236 387.885 48.5328 390.094 48.5328H412.583Z"
      fill="#E0E0E0" />
    <path fill-rule="evenodd" clip-rule="evenodd"
      d="M69.0356 53.2604C69.0356 46.4175 63.3023 40.8709 56.2303 40.8709C54.1539 40.8709 52.1293 41.3588 50.3206 42.2691C48.3931 43.239 45.9451 43.3087 44.3944 41.8084L41.092 38.6134C39.4671 37.0414 39.4547 34.4064 41.3128 33.1182C45.6342 30.1221 50.8448 28.4809 56.2303 28.4809C70.3749 28.4809 81.8409 39.5751 81.8409 53.2604V80.7607C81.8409 82.9698 80.05 84.7607 77.8409 84.7607H70.2821C69.5937 84.7607 69.0356 84.2026 69.0356 83.5142C69.0356 82.5541 67.9898 81.946 67.1211 82.3551C64.9662 83.3699 62.6471 84.0928 60.2146 84.4731C58.0319 84.8144 56.2303 82.9906 56.2303 80.7815V75.965C56.2303 73.7558 58.0639 72.0271 60.1662 71.3482C60.5336 71.2295 60.8938 71.0947 61.2459 70.9445C63.4008 70.0255 63.4006 67.1615 61.2457 66.2426C59.7054 65.5858 58.0102 65.2223 56.2303 65.2223C54.1838 65.2223 52.1877 65.7127 50.3989 66.6286C48.4312 67.636 45.9083 67.708 44.3459 66.1441L40.9454 62.7406C39.3849 61.1787 39.37 58.6176 41.1542 57.3173C45.5065 54.1453 50.7788 52.4058 56.2303 52.4058C59.978 52.4058 63.5379 53.2115 66.7464 54.6594C67.7886 55.1297 69.0356 54.4038 69.0356 53.2604Z"
      fill="#E0E0E0" />
    <path fill-rule="evenodd" clip-rule="evenodd"
      d="M156.057 58.387V32.481C156.057 30.2719 157.848 28.481 160.057 28.481H165.944C168.153 28.481 169.944 30.2717 169.944 32.4807L169.946 58.387C169.946 65.2754 175.525 70.8596 182.408 70.8596C189.289 70.8596 194.868 65.276 194.869 58.3882C194.869 58.3876 194.87 58.387 194.87 58.387C194.871 58.387 194.871 58.3865 194.871 58.3859V32.481C194.871 30.2719 196.662 28.481 198.871 28.481H204.758C206.967 28.481 208.758 30.2719 208.758 32.481V58.387C208.758 72.9526 196.961 84.7609 182.408 84.7609C167.854 84.7609 156.057 72.9526 156.057 58.387Z"
      fill="#E0E0E0" />
    <path fill-rule="evenodd" clip-rule="evenodd"
      d="M223.1 54.8583C223.1 40.2927 234.413 28.4844 248.369 28.4844C254.023 28.4844 259.243 30.4226 263.454 33.6971C265.311 35.1415 268.023 35.1414 269.88 33.697C274.09 30.4226 279.31 28.4844 284.964 28.4844C298.92 28.4844 310.233 40.2927 310.233 54.8583L310.184 80.7719C310.18 82.9781 308.39 84.7643 306.184 84.7643H300.294C298.083 84.7643 296.292 82.9708 296.294 80.76L296.322 54.8583C296.322 48.3114 291.237 43.0039 284.964 43.0039C278.934 43.0039 274 47.9093 273.628 54.106C273.634 54.2993 273.603 72.5254 273.588 80.7805C273.585 82.9868 271.795 84.7643 269.589 84.7643H263.695C261.486 84.7643 259.695 82.9824 259.695 80.7731C259.696 72.5146 259.7 54.2992 259.705 54.106C259.333 47.9093 254.4 43.0039 248.369 43.0039C242.096 43.0039 237.011 48.3114 237.011 54.8583L236.99 80.7675C236.988 82.9754 235.198 84.7643 232.99 84.7643H227.1C224.891 84.7643 223.1 82.9734 223.1 80.7643V54.8583Z"
      fill="#E0E0E0" />
    <path fill-rule="evenodd" clip-rule="evenodd"
      d="M480.912 58.387V32.481C480.912 30.2719 482.703 28.481 484.912 28.481H490.799C493.008 28.481 494.799 30.2717 494.799 32.4807L494.801 58.387C494.801 65.2754 500.381 70.8596 507.263 70.8596C514.145 70.8596 519.724 65.2754 519.724 58.387L519.726 32.4807C519.726 30.2717 521.517 28.481 523.726 28.481H529.613C531.822 28.481 533.613 30.2719 533.613 32.481V58.387C533.613 72.9526 521.816 84.7609 507.263 84.7609C492.71 84.7609 480.912 72.9526 480.912 58.387Z"
      fill="#E0E0E0" />
    <path fill-rule="evenodd" clip-rule="evenodd"
      d="M359.748 54.1152C359.748 47.0363 354.014 41.2985 346.942 41.2985C344.896 41.2985 342.9 41.7888 341.111 42.7045C339.143 43.7117 336.621 43.7836 335.058 42.2199L331.658 38.8165C330.097 37.2547 330.082 34.6936 331.866 33.3932C336.219 30.2209 341.491 28.4812 346.942 28.4812C361.087 28.4812 372.553 39.958 372.553 54.1152V80.761C372.553 82.9701 370.762 84.761 368.553 84.761H360.994C360.306 84.761 359.748 84.203 359.748 83.5146C359.748 82.5545 358.702 81.9466 357.833 82.3556C355.678 83.3704 353.359 84.0933 350.927 84.4736C348.744 84.8148 346.942 82.9911 346.942 80.782V75.9652C346.942 73.7561 348.776 72.0274 350.878 71.3485C351.246 71.2299 351.606 71.0951 351.958 70.945C354.113 70.026 354.113 67.162 351.958 66.2431C350.418 65.5862 348.722 65.2228 346.942 65.2228C344.896 65.2228 342.9 65.7131 341.111 66.6288C339.143 67.6362 336.62 67.7083 335.058 66.1445L331.658 62.7414C330.097 61.1796 330.082 58.6185 331.866 57.3181C336.219 54.1458 341.491 52.4061 346.942 52.4061C350.994 52.4061 354.825 53.3476 358.231 55.0243C358.917 55.3618 359.748 54.8793 359.748 54.1152Z"
      fill="#E0E0E0" />
    <path fill-rule="evenodd" clip-rule="evenodd"
      d="M436.864 54.1152C436.864 41.3147 446.238 30.7054 458.49 28.7896C460.673 28.4484 462.475 30.2721 462.475 32.4812V38.3762C462.475 40.5853 460.633 42.3097 458.551 43.0493C454.003 44.6649 450.746 49.0095 450.746 54.1152L450.75 80.7604C450.751 82.9698 448.96 84.761 446.75 84.761H440.864C438.655 84.761 436.864 82.9701 436.864 80.761V54.1152Z"
      fill="#E0E0E0" />
  </g>
  <defs>
    <clipPath id="clip0_89_3">
      <rect width="534" height="85" fill="white" />
    </clipPath>
  </defs>
</svg>